# xmcd CD database file
# Copyright (C) 1995-1998 Ti Kan
#
# Track frame offsets:
#	150
#	13646
#	27457
#	41005
#	53306
#	65237
#	77535
#	89904
#	102904
#	117133
#	129537
#	143733
#	157488
#	172182
#	183627
#	195910
#	211938
#	221761
#	234815
#	245617
#	258269
#	270786
#	283819
#	294967
#
# Disc length: 4107 seconds
#
# Revision: 2
# Processed by: cddbd v1.4PL0 Copyright (c) Steve Scherf et al.
# Submitted via: CDex 1.30Release
#
DISCID=60100918
DTITLE=John Lee Hooker - Kings Of World Music Compilation
DYEAR=1900
DGENRE=Blues
TTITLE0=Let's Talk It Over
TTITLE1=Blues For Abraham Lincoln
TTITLE2=Hey,'s The House Rent Boogie
TTITLE3=Bluebird, Bluebird Take A Letter Down South
TTITLE4=Yes, Baby, Baby, Baby
TTITLE5=I Got The Key
TTITLE6=Baby How Can You Do It
TTITLE7=Do My Baby Think Of Me?
TTITLE8=Boogie Chillun
TTITLE9=It Hurts Me So
TTITLE10=This Is 19 And 52, Babe
TTITLE11=Four Women In My Life
TTITLE12=Hello Baby
TTITLE13=I'm Gonna Git Me A Woman
TTITLE14=Drug Store Woman
TTITLE15=My First Wife Left Me
TTITLE16=Dimples
TTITLE17=I'm Going Upstairs
TTITLE18=No Shoes
TTITLE19=Hobo Blues
TTITLE20=Mambo Chillun
TTITLE21=I'm So Excited
TTITLE22=Boom Boom
TTITLE23=I'm In The Mood
EXTD=ID3G:   0
EXTT0=
EXTT1=
EXTT2=
EXTT3=
EXTT4=
EXTT5=
EXTT6=
EXTT7=
EXTT8=
EXTT9=
EXTT10=
EXTT11=
EXTT12=
EXTT13=
EXTT14=
EXTT15=
EXTT16=
EXTT17=
EXTT18=
EXTT19=
EXTT20=
EXTT21=
EXTT22=
EXTT23=
PLAYORDER=
